<svg xmlns="http://www.w3.org/2000/svg" width="32" height="32" viewBox="0 0 32 32">
  <defs>
    <clipPath id="hand">
      <path d="M12,2 C12,2 10,2 10,4 L10,16 L8,14 C8,14 6.5,12.5 5,13.5 C3.5,14.5 4,16 4,16 L9,23 C9,23 11,27 16,27 C21,27 23,23 23,23 L23,10 C23,10 23,8 21,8 C19.5,8 19,9 19,9 L19,8 C19,8 19,6 17,6 C15.5,6 15,7.5 15,7.5 L15,6 C15,6 15,4 13,4 C13,4 12,4 12,4 Z"/>
    </clipPath>
  </defs>
  <!-- Main colorée aux couleurs du drapeau -->
  <rect x="0" y="0" width="32" height="10" fill="#006A4E" clip-path="url(#hand)"/>
  <rect x="0" y="10" width="32" height="9" fill="#FFCD00" clip-path="url(#hand)"/>
  <rect x="0" y="19" width="32" height="13" fill="#CE1126" clip-path="url(#hand)"/>
  <!-- Contour -->
  <path d="M12,2 C12,2 10,2 10,4 L10,16 L8,14 C8,14 6.5,12.5 5,13.5 C3.5,14.5 4,16 4,16 L9,23 C9,23 11,27 16,27 C21,27 23,23 23,23 L23,10 C23,10 23,8 21,8 C19.5,8 19,9 19,9 L19,8 C19,8 19,6 17,6 C15.5,6 15,7.5 15,7.5 L15,6 C15,6 15,4 13,4 L13,2 Z" fill="none" stroke="#111" stroke-width="1.2" stroke-linejoin="round" stroke-linecap="round"/>
  <!-- Lignes des doigts -->
  <line x1="15" y1="7.5" x2="15" y2="18" stroke="#111" stroke-width="0.8" stroke-linecap="round"/>
  <line x1="19" y1="9" x2="19" y2="18" stroke="#111" stroke-width="0.8" stroke-linecap="round"/>
</svg>
